<svg width="24" height="18" viewBox="0 0 24 18" fill="none" xmlns="http://www.w3.org/2000/svg">
<path d="M22.5561 10.2238C22.5561 7.51227 21.4622 4.91181 19.5149 2.99448C17.5676 1.07715 14.9265 2.04714e-07 12.1726 0C9.41871 -2.04714e-07 6.77762 1.07715 4.83033 2.99448C2.88304 4.91181 1.78906 7.51227 1.78906 10.2238H7.1759C7.1759 8.91897 7.70233 7.66759 8.6394 6.74494C9.57646 5.8223 10.8474 5.30396 12.1726 5.30396C13.4978 5.30396 14.7687 5.8223 15.7058 6.74494C16.6429 7.66759 17.1693 8.91897 17.1693 10.2238H22.5561Z" fill="white"/>
<path d="M22.4522 10.9258C26.1501 10.9258 22.2145 11.5715 21.0261 11.6488C12.5485 12.2002 27.1618 13.3564 20.4714 13.6916C12.7862 13.6916 13.7875 16.5336 19.6449 17.7583C1.05979 16.6224 8.18673 15.8484 9.52758 15.016C10.8768 14.1784 6.51015 14.0077 3.24127 13.6916C0.954518 13.0636 5.87116 12.5324 5.87116 12.1228C5.4214 11.9573 5.09906 12.0163 3.89208 11.8655C-0.092399 11.3674 -1.45467 10.9258 1.88637 10.9258H7.28698C7.28698 11.1739 7.47978 11.4864 7.73959 11.7156C7.9994 11.9449 8.289 12.0863 8.76907 12.2618C9.24914 12.4372 9.65981 12.5764 10.2871 12.6713C10.9143 12.7663 11.5866 12.8151 12.2655 12.8151C12.9444 12.8151 13.6167 12.7663 14.2439 12.6713C14.8712 12.5764 15.1137 12.5567 15.5938 12.3813C16.0739 12.2058 16.4433 12.0159 16.7032 11.7866C16.963 11.5574 17.2445 11.1739 17.2445 10.9258H22.4522Z" fill="white"/>
</svg>
